<?xml version="1.0" encoding="utf-8"?>
<!-- Generator: Adobe Illustrator 23.0.2, SVG Export Plug-In . SVG Version: 6.00 Build 0)  -->
<svg version="1.1" id="Grup_1" xmlns="http://www.w3.org/2000/svg" xmlns:xlink="http://www.w3.org/1999/xlink" x="0px" y="0px"
	 width="282px" height="62.3px" viewBox="0 0 282 62.3" style="enable-background:new 0 0 282 62.3;" xml:space="preserve">
<style type="text/css">
	.st0{fill-rule:evenodd;clip-rule:evenodd;fill:#004895;}
	.st1{fill-rule:evenodd;clip-rule:evenodd;fill:#009FE3;}
</style>
<path id="Şekil_1" class="st0" d="M149.4,33.6L138.9,6.6h-18.4v9.6c1.2,0.7,1.9,2,1.9,3.3v28.6c0,1.4-0.7,2.6-1.9,3.3v9.8h16.9
	v-9.7c-1.2-0.7-2-2-2-3.4V36.3l10.5,24.9h18.4v-9.6c-1.2-0.7-1.9-2-1.9-3.3V19.7c0-1.4,0.7-2.6,1.9-3.3V6.6h-16.9v9.7
	c1.2,0.7,2,2,2,3.4V33.6 M188.7,38.4v11.2h3.1c1.9,0,3.5-1.6,3.5-3.5v-4.3h15.7v19.4h-41v-9.8c1.2-0.7,1.9-2,1.9-3.3V19.5
	c0-1.4-0.7-2.6-1.9-3.3V6.6h41v18.6h-15.7v-3.4c0-1.9-1.6-3.5-3.5-3.5h-3.1v9.9h11.1v10.2H188.7z M238.2,60.8l-7.9-29.5v16.7
	c0,1.4,0.8,2.7,2,3.4v9.7h-16.9v-9.8c1.2-0.7,1.9-2,1.9-3.3V19.5c0-1.4-0.7-2.6-1.9-3.3V6.6h21.4l5.9,22.9l5.9-22.9h20.1v9.6
	c-1.2,0.7-1.9,2-1.9,3.3v28.6c0,1.4,0.7,2.6,1.9,3.3v9.8h-19.3v-9.7c1.2-0.7,2-2,2-3.4V31.3l-7.7,29.5H238.2z M275.1,7.3V2.2h2.2
	c0.4,0,0.8,0,1.2,0.1c0.2,0.1,0.5,0.3,0.6,0.5c0.1,0.2,0.2,0.5,0.2,0.8c0,0.3-0.1,0.7-0.3,0.9c-0.3,0.3-0.6,0.4-1,0.5
	c0.2,0.1,0.4,0.3,0.5,0.4c0.2,0.3,0.4,0.5,0.6,0.8l0.6,1h-1.2l-0.7-1.1c-0.2-0.3-0.3-0.5-0.5-0.7c-0.1-0.1-0.2-0.2-0.3-0.2
	c-0.2,0-0.3-0.1-0.5-0.1h-0.2v2.1H275.1L275.1,7.3z M276.1,4.4h0.8c0.3,0,0.6,0,0.9-0.1c0.1,0,0.2-0.1,0.3-0.2
	c0.1-0.1,0.1-0.2,0.1-0.4c0-0.2,0-0.3-0.1-0.4c-0.1-0.1-0.2-0.2-0.4-0.2c-0.1,0-0.3,0-0.7,0h-0.8L276.1,4.4L276.1,4.4z M277.1,0
	c-2.7,0-4.9,2.2-4.9,4.9c0,2.7,2.2,4.9,4.9,4.9c2.7,0,4.9-2.2,4.9-4.9c0,0,0,0,0,0C282,2.2,279.8,0,277.1,0C277.1,0,277.1,0,277.1,0
	z M277.1,8.8c-2.2,0-4-1.8-4-3.9c0-2.2,1.8-4,3.9-4c2.2,0,4,1.8,4,3.9c0,0,0,0,0,0C281.1,7,279.3,8.8,277.1,8.8z"/>
<path id="Şekil_2" class="st1" d="M21,48.1V19.5c0-1.4,0.8-2.7,2-3.4V6.6H2.2v9.6c1.2,0.7,1.9,2,1.9,3.3v28.6
	c0,1.4-0.7,2.6-1.9,3.3v9.8H23v-9.7C21.7,50.8,21,49.5,21,48.1z M67.4,11.1c0,0-7.5-5.7-19.7-5.7c-14.9,0-20.2,6.7-20.2,14.8v4.3
	c0,2.2,1.2,7.5,4.2,10.1c1.7,1.3,3.6,2.4,5.6,3c4.6,1.6,15,2.6,15,7.6v1.2c0,1.9-1.5,3.5-3.5,3.5l0,0c-1.9,0-3.5-1.6-3.5-3.5v-3.8
	H29.1v13.5c0,0,7.5,5.7,19.7,5.7c14.9,0,20.2-6.7,20.2-14.8v-4.3c0.2-3.8-1.4-7.5-4.2-10.2c-1.6-1.3-3.5-2.4-5.6-3
	c-4.6-1.6-15-2.6-15-7.6v-1.2c0-1.9,1.5-3.5,3.5-3.5l0,0c1.9,0,3.5,1.6,3.5,3.5v2.8l16.3-0.1L67.4,11.1L67.4,11.1z M94.4,5.4
	c-14.9,0-20.2,6.6-20.2,14.7v27.5c0,8.1,5.4,14.7,20.2,14.7s20.2-6.6,20.2-14.7V20.1C114.6,12.1,109.3,5.4,94.4,5.4z M97.9,47
	c0,1.9-1.6,3.5-3.5,3.5l0,0c-1.9,0-3.5-1.6-3.5-3.5V20.7c0-1.9,1.6-3.5,3.5-3.5l0,0c1.9,0,3.5,1.6,3.5,3.5V47z"/>
</svg>
