<?xml version="1.0" encoding="utf-8"?>
<!-- Generator: Adobe Illustrator 16.0.0, SVG Export Plug-In . SVG Version: 6.00 Build 0)  -->
<!DOCTYPE svg PUBLIC "-//W3C//DTD SVG 1.1//EN" "http://www.w3.org/Graphics/SVG/1.1/DTD/svg11.dtd">
<svg version="1.1" id="Layer_1" xmlns="http://www.w3.org/2000/svg" xmlns:xlink="http://www.w3.org/1999/xlink" x="0px" y="0px"
	 width="200px" height="58px" viewBox="0 0 200 58" enable-background="new 0 0 200 58" xml:space="preserve">
<g>
	<path fill="#BE1E2D" d="M21.86,57.232c0,0-3.881,0.662-12.4-3.787c-8.52-4.448-6.79-6.522-5.585-7.193
		c2.442-1.361,4.26,0.664,4.26,0.664S18.737,56.097,21.86,57.232z"/>
	<path fill="#EE4037" d="M24.005,51.743c0,0-19.731-22.609-19.625-34.478c0.107-11.866,12.188-8.338,11.868-0.747
		c-0.321,7.591,1.282,23.52,8.552,33.675C24.8,50.193,26.766,54.384,24.005,51.743z"/>
	<path fill="#F3792F" d="M27.409,50.728c0,0-12.294-20.098-7.805-39.234c4.49-19.137,13.15-9.515,11.76-5.452
		s-7.47,18.495-3.406,43.724C27.958,49.766,27.983,51.728,27.409,50.728z"/>
	<path fill="#006CAA" d="M43.473,57.766c0,0,3.879,0.661,12.399-3.788c8.521-4.447,6.819-6.575,5.585-7.193
		c-2.006-1.003-4.26,0.662-4.26,0.662S46.596,56.629,43.473,57.766z"/>
	<path fill="#00ADEE" d="M56.629,35.899c0,0-10.885,16.187-14.293,19.404c0,0-1.042,2.367,1.136,0.852
		c2.176-1.514,16.376-12.873,19.972-18.364C67.042,32.302,59.451,31.62,56.629,35.899z"/>
	<path fill="#F6CA34" d="M8.703,35.367c0,0,10.886,16.187,14.293,19.404c0,0,1.041,2.367-1.136,0.852
		C19.684,54.109,5.484,42.75,1.887,37.259C-1.709,31.77,6.652,31.62,8.703,35.367z"/>
	<path fill="#8BC53F" d="M43.18,46.356c-0.151,1.513-0.344,2.929-0.557,4.226c4.043-4.831,18.692-23.042,18.6-33.272
		c-0.106-11.866-12.188-8.34-11.867-0.749C49.638,23.241,48.43,36.379,43.18,46.356z"/>
	<path fill="#DA1B5C" d="M37.91,25.527c0.078-1.301,0.123-2.575,0.131-3.802h-9.42l8.82-6.734c0.061,0.112,0.119,0.224,0.18,0.334
		l0.005-0.004c-0.66-3.951-2.167-6.377-4.987-5.763c-8.163,1.775-3.19,35.792-2.558,39.907C34.636,43.481,36.97,31.618,37.91,25.527
		z"/>
	<path fill="#9F1F64" d="M37.864,15.145l3.207-2.395c-0.064-0.168-0.101-0.35-0.101-0.54c0-0.827,0.669-1.498,1.496-1.498
		c0.825,0,1.496,0.671,1.496,1.498c0,0.826-0.671,1.497-1.496,1.497c-0.478,0-0.9-0.224-1.175-0.57l-3.299,2.559
		c0.043,0.192,0.087,0.385,0.13,0.583c0.364,0.715,0.706,1.434,1.027,2.153l4.308-1.473c-0.011-0.179,0.011-0.364,0.069-0.545
		c0.254-0.786,1.095-1.218,1.883-0.966c0.787,0.254,1.218,1.097,0.966,1.883c-0.254,0.788-1.097,1.219-1.885,0.965
		c-0.452-0.146-0.786-0.488-0.94-0.901l-4.185,1.516c0.298,0.687,0.575,1.372,0.836,2.059l4.192,0.577
		c0.071-0.165,0.172-0.32,0.305-0.456c0.58-0.589,1.528-0.597,2.117-0.016c0.589,0.579,0.596,1.526,0.016,2.116
		c-0.581,0.589-1.528,0.596-2.116,0.016c-0.339-0.333-0.484-0.79-0.437-1.23L40.4,21.516c2.6,7.137,3.26,14.249,3.074,20.337
		c2.973-7.633,5.891-18.887,3.324-29.828c-4.49-19.137-14.043-10.464-11.76-5.452C35.69,8.002,36.851,10.862,37.864,15.145z"/>
</g>
<g>
	<g>
		<path fill="#231F20" d="M82.819,22.667l2.498-5.168l2.497-4.712c0.154-0.279,0.331-0.488,0.531-0.628
			c0.201-0.136,0.516-0.209,0.95-0.209h7.537c0.586,0,0.887,0.097,0.901,0.285c0.015,0.19-0.038,0.375-0.161,0.552L87.259,29.278
			v8.396c0,0.304-0.055,0.523-0.163,0.665c-0.107,0.14-0.423,0.209-0.949,0.209h-6.566c-0.71,0-1.064-0.292-1.064-0.874v-8.283
			L67.881,12.827c-0.123-0.181-0.14-0.369-0.046-0.571c0.093-0.203,0.385-0.306,0.878-0.306h7.168c0.617,0,1.018,0.077,1.202,0.229
			c0.187,0.153,0.37,0.406,0.556,0.76l2.45,4.637l2.451,5.092H82.819z"/>
		<path fill="#231F20" d="M111.363,33.341h-9.109l-1.528,4.369c-0.091,0.279-0.231,0.487-0.415,0.629
			c-0.186,0.14-0.542,0.209-1.064,0.209h-6.798c-0.555,0-0.756-0.242-0.602-0.72l9.112-23.521c0.4-1.013,0.893-1.667,1.479-1.955
			c0.585-0.292,1.403-0.439,2.45-0.439h3.747c0.555,0,1.04,0.021,1.457,0.057c0.416,0.041,0.787,0.132,1.11,0.286
			c0.324,0.153,0.615,0.385,0.878,0.703c0.263,0.316,0.5,0.754,0.718,1.312l9.109,23.558c0.063,0.124,0.069,0.273,0.023,0.452
			c-0.046,0.176-0.253,0.268-0.624,0.268h-6.983c-0.371,0-0.68-0.041-0.925-0.113c-0.246-0.077-0.417-0.256-0.509-0.534
			L111.363,33.341z M104.196,27.722h5.272l-0.879-2.965l-1.481-5.472h-0.368l-1.574,5.583L104.196,27.722z"/>
		<path fill="#231F20" d="M162.429,33.341h-9.111l-1.527,4.369c-0.093,0.279-0.229,0.487-0.415,0.629
			c-0.186,0.14-0.541,0.209-1.066,0.209h-6.795c-0.555,0-0.758-0.242-0.602-0.72l9.111-23.521c0.399-1.013,0.894-1.667,1.48-1.955
			c0.585-0.292,1.402-0.439,2.452-0.439h3.745c0.555,0,1.039,0.021,1.457,0.057c0.417,0.041,0.784,0.132,1.109,0.286
			c0.322,0.153,0.615,0.385,0.88,0.703c0.259,0.316,0.498,0.754,0.714,1.312l9.111,23.558c0.063,0.124,0.07,0.273,0.023,0.452
			c-0.046,0.176-0.253,0.268-0.625,0.268h-6.982c-0.368,0-0.677-0.041-0.927-0.113c-0.246-0.077-0.415-0.256-0.508-0.534
			L162.429,33.341z M155.26,27.722h5.273l-0.879-2.965l-1.481-5.472h-0.369l-1.574,5.583L155.26,27.722z"/>
		<path fill="#231F20" d="M199.465,15.829c0,0.607-0.203,1.208-0.601,1.801c-0.402,0.6-0.817,1.109-1.249,1.542l-12.718,12.99
			l0.091,0.307h13.504c0.372,0,0.624,0.041,0.763,0.13c0.139,0.092,0.209,0.352,0.209,0.781v4.294c0,0.582-0.326,0.874-0.973,0.874
			h-22.938c-0.987,0-1.704-0.16-2.151-0.476c-0.445-0.314-0.668-0.881-0.668-1.691v-1.177c0-0.683,0.167-1.293,0.508-1.824
			c0.339-0.533,0.77-1.063,1.294-1.597l13.179-13.411v-0.378h-12.115c-0.648,0-0.973-0.292-0.973-0.874v-4.257
			c0-0.433,0.069-0.69,0.208-0.778c0.14-0.09,0.395-0.135,0.764-0.135h21.042c1.078,0,1.819,0.152,2.221,0.458
			c0.398,0.302,0.601,0.899,0.601,1.785V15.829z"/>
		<path fill="#231F20" d="M130.921,38.548c-1.85,0-3.353-0.217-4.509-0.647s-2.066-0.993-2.729-1.692
			c-0.665-0.696-1.119-1.473-1.365-2.337c-0.247-0.859-0.37-1.709-0.37-2.542l-0.046-18.619c0-0.532,0.355-0.797,1.064-0.797h6.614
			c0.522,0,0.838,0.057,0.948,0.172c0.108,0.113,0.161,0.323,0.161,0.625v17.667c0,0.483,0.07,0.862,0.208,1.143
			c0.14,0.275,0.333,0.488,0.58,0.625c0.246,0.141,0.538,0.228,0.879,0.268c0.339,0.035,0.709,0.057,1.111,0.057h7.782
			c0.372,0,0.624,0.041,0.763,0.13c0.14,0.092,0.21,0.352,0.21,0.781v4.294c0,0.582-0.326,0.874-0.973,0.874H130.921z"/>
	</g>
	<g>
		<path fill="#231F20" d="M72.168,43.093c0.013-0.055,0.031-0.095,0.055-0.116c0.02-0.025,0.063-0.041,0.12-0.041h0.235
			c0.103,0,0.155,0.044,0.155,0.128l-0.155,1.995c-0.007,0.048-0.021,0.083-0.045,0.117c-0.021,0.033-0.063,0.047-0.122,0.047H71.75
			c-0.052,0-0.09-0.006-0.116-0.032c-0.027-0.022-0.041-0.049-0.041-0.084v-0.037L72.168,43.093z M73.659,43.093
			c0.012-0.055,0.028-0.095,0.047-0.116c0.021-0.025,0.058-0.041,0.119-0.041h0.242c0.097,0,0.146,0.036,0.146,0.106v0.021
			c-0.024,0.332-0.051,0.662-0.073,0.998c-0.024,0.333-0.05,0.666-0.083,0.997c-0.006,0.048-0.018,0.083-0.038,0.117
			c-0.02,0.033-0.058,0.047-0.116,0.047H73.23c-0.104,0-0.156-0.043-0.156-0.123v-0.03L73.659,43.093z"/>
		<path fill="#231F20" d="M81.058,46.645c0.274,0.095,0.469,0.223,0.589,0.391c0.121,0.168,0.215,0.378,0.287,0.623l0.574,2.066
			c0.014,0.033,0.014,0.063,0,0.096c-0.013,0.032-0.047,0.051-0.105,0.051h-0.537c-0.027,0-0.055-0.008-0.087-0.019
			c-0.032-0.008-0.055-0.039-0.069-0.091l-0.523-1.89c-0.06-0.199-0.133-0.365-0.219-0.489c-0.088-0.131-0.192-0.23-0.308-0.303
			c-0.116-0.077-0.248-0.125-0.39-0.154c-0.144-0.032-0.296-0.044-0.457-0.044h-1.529v2.861c0,0.052-0.01,0.089-0.03,0.102
			c-0.02,0.016-0.055,0.026-0.106,0.026h-0.496c-0.052,0-0.088-0.011-0.108-0.026c-0.02-0.013-0.03-0.05-0.03-0.102v-6.251
			c0-0.15,0.034-0.264,0.098-0.344c0.065-0.077,0.187-0.114,0.36-0.114h2.211c0.311,0,0.589,0.045,0.837,0.142
			c0.245,0.092,0.458,0.225,0.633,0.396c0.176,0.166,0.31,0.366,0.404,0.595c0.094,0.231,0.142,0.483,0.142,0.758
			c0,0.387-0.099,0.734-0.292,1.041c-0.197,0.308-0.479,0.523-0.849,0.651V46.645z M81.428,44.96c0-0.152-0.022-0.307-0.073-0.457
			c-0.047-0.149-0.126-0.276-0.232-0.394c-0.108-0.114-0.246-0.2-0.415-0.275c-0.168-0.065-0.374-0.101-0.613-0.101h-1.801v2.484
			h1.743c0.481,0,0.832-0.116,1.056-0.347C81.317,45.633,81.428,45.329,81.428,44.96z"/>
		<path fill="#231F20" d="M87.399,44.649c0.368,0,0.687,0.056,0.953,0.161c0.268,0.11,0.484,0.259,0.658,0.453
			c0.172,0.194,0.3,0.424,0.384,0.69c0.084,0.267,0.126,0.56,0.126,0.877c0,0.274-0.063,0.454-0.189,0.54
			c-0.126,0.089-0.28,0.133-0.463,0.133h-2.979c0,0.332,0.042,0.62,0.127,0.854c0.085,0.238,0.202,0.428,0.348,0.573
			c0.146,0.144,0.318,0.249,0.518,0.314c0.198,0.065,0.411,0.099,0.639,0.099c0.214,0,0.425-0.024,0.631-0.08
			c0.205-0.05,0.378-0.117,0.523-0.194c0.078-0.035,0.132-0.023,0.166,0.036l0.174,0.344c0.04,0.081,0.024,0.137-0.048,0.169
			c-0.228,0.143-0.472,0.233-0.73,0.284c-0.259,0.049-0.513,0.074-0.76,0.074c-0.714,0-1.275-0.213-1.683-0.629
			c-0.41-0.421-0.615-1.088-0.615-2.013c0-0.436,0.055-0.815,0.166-1.151c0.109-0.336,0.264-0.615,0.463-0.846
			c0.197-0.225,0.43-0.397,0.7-0.515C86.775,44.709,87.073,44.649,87.399,44.649z M88.839,46.918c0-0.219-0.023-0.43-0.07-0.631
			c-0.045-0.201-0.122-0.381-0.229-0.53c-0.107-0.153-0.255-0.278-0.445-0.366c-0.187-0.09-0.423-0.138-0.703-0.138
			c-0.229,0-0.431,0.044-0.61,0.132c-0.18,0.087-0.33,0.207-0.455,0.353c-0.123,0.151-0.219,0.327-0.288,0.532
			c-0.068,0.196-0.109,0.416-0.121,0.648H88.839z"/>
		<path fill="#231F20" d="M96.609,49.845c-0.02,0.016-0.055,0.026-0.106,0.026h-0.442c-0.044,0-0.078-0.011-0.099-0.026
			c-0.023-0.013-0.035-0.05-0.035-0.102v-2.598c0-0.314-0.024-0.586-0.073-0.822c-0.048-0.233-0.134-0.424-0.258-0.578
			c-0.122-0.153-0.293-0.27-0.512-0.347c-0.217-0.076-0.491-0.112-0.823-0.112c-0.078,0-0.213,0.003-0.409,0.011
			c-0.194,0.011-0.406,0.035-0.633,0.083v4.363c0,0.052-0.009,0.089-0.029,0.102c-0.018,0.016-0.055,0.026-0.107,0.026h-0.438
			c-0.046,0-0.081-0.011-0.103-0.026c-0.023-0.013-0.033-0.05-0.033-0.102v-4.353c0-0.372,0.174-0.583,0.524-0.646
			c0.077-0.011,0.172-0.021,0.286-0.035c0.112-0.012,0.231-0.026,0.35-0.038c0.12-0.007,0.236-0.015,0.35-0.015
			c0.114-0.007,0.208-0.007,0.286-0.007c0.414,0,0.77,0.048,1.064,0.135c0.293,0.092,0.536,0.234,0.724,0.433
			c0.188,0.192,0.326,0.444,0.412,0.759c0.089,0.312,0.132,0.688,0.132,1.13v2.638C96.638,49.795,96.629,49.832,96.609,49.845z"/>
		<path fill="#231F20" d="M101.988,44.661c0.292,0,0.601,0.018,0.928,0.063c0.327,0.043,0.639,0.127,0.938,0.248
			c0.072,0.04,0.105,0.095,0.105,0.168v4.37c0,0.435-0.053,0.8-0.156,1.093c-0.108,0.295-0.262,0.544-0.463,0.738
			c-0.203,0.193-0.455,0.347-0.757,0.452s-0.645,0.188-1.028,0.238c-0.077,0.006-0.125-0.022-0.146-0.088l-0.059-0.446
			c0-0.066,0.034-0.103,0.099-0.109c0.278-0.044,0.529-0.099,0.748-0.169c0.222-0.069,0.411-0.161,0.566-0.28
			c0.154-0.118,0.275-0.268,0.356-0.446c0.081-0.183,0.121-0.413,0.121-0.693l-0.008-0.056c-0.208,0.07-0.442,0.128-0.704,0.168
			c-0.262,0.044-0.492,0.066-0.686,0.066c-0.382,0-0.708-0.066-0.981-0.197c-0.272-0.128-0.496-0.308-0.674-0.537
			c-0.179-0.234-0.309-0.504-0.393-0.825c-0.084-0.319-0.126-0.662-0.126-1.042c0-0.388,0.045-0.75,0.135-1.086
			c0.091-0.336,0.229-0.621,0.418-0.857c0.188-0.246,0.43-0.433,0.724-0.566C101.238,44.728,101.586,44.661,101.988,44.661z
			 M103.25,45.458c-0.208-0.071-0.425-0.122-0.653-0.15c-0.227-0.028-0.424-0.044-0.593-0.044c-0.235,0-0.451,0.041-0.648,0.121
			c-0.197,0.084-0.367,0.204-0.506,0.372c-0.14,0.164-0.25,0.375-0.331,0.64c-0.081,0.267-0.123,0.576-0.123,0.939
			c0,0.673,0.135,1.175,0.405,1.517c0.269,0.339,0.644,0.511,1.124,0.511c0.13,0,0.321-0.015,0.57-0.047
			c0.25-0.034,0.501-0.099,0.755-0.188V45.458z"/>
		<path fill="#231F20" d="M108.225,43.356c0,0.136-0.047,0.247-0.141,0.34c-0.095,0.091-0.209,0.138-0.345,0.138
			c-0.131,0-0.244-0.047-0.343-0.138c-0.095-0.093-0.146-0.204-0.146-0.34c0-0.14,0.05-0.252,0.146-0.354
			c0.099-0.095,0.211-0.147,0.343-0.147c0.136,0,0.25,0.053,0.345,0.147C108.178,43.104,108.225,43.217,108.225,43.356z
			 M108.088,49.743c0,0.052-0.009,0.089-0.029,0.102c-0.02,0.016-0.055,0.026-0.107,0.026h-0.438c-0.046,0-0.08-0.011-0.103-0.026
			c-0.023-0.013-0.034-0.05-0.034-0.102v-4.858c0-0.053,0.01-0.086,0.034-0.104c0.023-0.015,0.057-0.026,0.103-0.026h0.438
			c0.052,0,0.087,0.012,0.107,0.026c0.02,0.018,0.029,0.051,0.029,0.104V49.743z"/>
		<path fill="#231F20" d="M115.617,49.845c-0.021,0.016-0.055,0.026-0.107,0.026h-0.441c-0.045,0-0.079-0.011-0.102-0.026
			c-0.022-0.013-0.033-0.05-0.033-0.102v-2.598c0-0.314-0.025-0.586-0.073-0.822c-0.048-0.233-0.134-0.424-0.259-0.578
			c-0.123-0.153-0.292-0.27-0.51-0.347c-0.218-0.076-0.493-0.112-0.823-0.112c-0.079,0-0.214,0.003-0.408,0.011
			c-0.197,0.011-0.408,0.035-0.635,0.083v4.363c0,0.052-0.008,0.089-0.029,0.102c-0.018,0.016-0.055,0.026-0.107,0.026h-0.437
			c-0.045,0-0.081-0.011-0.102-0.026c-0.024-0.013-0.035-0.05-0.035-0.102v-4.353c0-0.372,0.176-0.583,0.525-0.646
			c0.078-0.011,0.173-0.021,0.287-0.035c0.113-0.012,0.229-0.026,0.349-0.038c0.122-0.007,0.237-0.015,0.349-0.015
			c0.114-0.007,0.21-0.007,0.288-0.007c0.413,0,0.769,0.048,1.063,0.135c0.295,0.092,0.537,0.234,0.723,0.433
			c0.188,0.192,0.326,0.444,0.414,0.759c0.088,0.312,0.132,0.688,0.132,1.13v2.638C115.645,49.795,115.635,49.832,115.617,49.845z"
			/>
		<path fill="#231F20" d="M119.919,43.356c0,0.136-0.047,0.247-0.14,0.34c-0.095,0.091-0.209,0.138-0.346,0.138
			c-0.132,0-0.244-0.047-0.342-0.138c-0.095-0.093-0.146-0.204-0.146-0.34c0-0.14,0.051-0.252,0.146-0.354
			c0.099-0.095,0.21-0.147,0.342-0.147c0.136,0,0.25,0.053,0.346,0.147C119.872,43.104,119.919,43.217,119.919,43.356z
			 M119.783,49.743c0,0.052-0.009,0.089-0.029,0.102c-0.021,0.016-0.055,0.026-0.107,0.026h-0.439c-0.045,0-0.079-0.011-0.102-0.026
			c-0.023-0.013-0.033-0.05-0.033-0.102v-4.858c0-0.053,0.01-0.086,0.033-0.104c0.023-0.015,0.057-0.026,0.102-0.026h0.439
			c0.052,0,0.086,0.012,0.107,0.026c0.02,0.018,0.029,0.051,0.029,0.104V49.743z"/>
		<path fill="#231F20" d="M132.033,47.252c0,0.387-0.045,0.749-0.136,1.084c-0.092,0.335-0.232,0.626-0.423,0.867
			c-0.192,0.241-0.434,0.436-0.725,0.569c-0.292,0.135-0.639,0.205-1.043,0.205c-0.292,0-0.603-0.025-0.929-0.07
			c-0.328-0.044-0.641-0.127-0.94-0.255c-0.071-0.021-0.106-0.077-0.106-0.165v-6.609c0-0.052,0.009-0.089,0.033-0.101
			c0.023-0.017,0.057-0.027,0.104-0.027h0.446c0.054,0,0.086,0.011,0.104,0.027c0.016,0.012,0.024,0.049,0.024,0.101v2.01
			c0.209-0.07,0.444-0.133,0.711-0.175c0.265-0.042,0.5-0.063,0.7-0.063c0.378,0,0.702,0.067,0.979,0.197
			c0.276,0.128,0.503,0.307,0.682,0.538c0.179,0.233,0.31,0.504,0.395,0.822C131.992,46.523,132.033,46.875,132.033,47.252z
			 M128.439,49.181c0.209,0.068,0.427,0.116,0.658,0.146c0.229,0.022,0.43,0.037,0.598,0.037c0.234,0,0.448-0.037,0.643-0.117
			c0.195-0.077,0.364-0.199,0.506-0.361c0.143-0.168,0.256-0.384,0.337-0.643c0.082-0.264,0.122-0.577,0.122-0.94
			c0-0.668-0.137-1.17-0.41-1.508c-0.272-0.34-0.645-0.508-1.12-0.508c-0.129,0-0.32,0.015-0.574,0.043
			c-0.252,0.033-0.506,0.099-0.76,0.188V49.181z"/>
		<path fill="#231F20" d="M138.947,49.422c0,0.117-0.047,0.197-0.136,0.23c-0.295,0.128-0.604,0.211-0.936,0.255
			c-0.333,0.045-0.652,0.07-0.952,0.07c-0.419,0-0.757-0.048-1.024-0.139c-0.269-0.089-0.478-0.208-0.634-0.354
			c-0.156-0.147-0.266-0.318-0.325-0.508c-0.065-0.194-0.094-0.391-0.094-0.6c0-0.246,0.043-0.468,0.126-0.685
			c0.083-0.208,0.214-0.394,0.386-0.547c0.172-0.157,0.389-0.281,0.647-0.365c0.259-0.091,0.568-0.136,0.926-0.136h1.292v-0.26
			c0-0.157-0.013-0.306-0.045-0.442c-0.034-0.143-0.097-0.255-0.187-0.354c-0.089-0.096-0.215-0.168-0.378-0.227
			c-0.162-0.052-0.375-0.076-0.635-0.076c-0.212,0-0.447,0.019-0.703,0.062c-0.259,0.039-0.479,0.092-0.657,0.15
			c-0.047,0.012-0.083,0.019-0.11,0.015c-0.022-0.003-0.042-0.029-0.056-0.073l-0.1-0.354c-0.017-0.073,0.007-0.125,0.081-0.15
			c0.116-0.042,0.242-0.084,0.378-0.12c0.135-0.037,0.278-0.07,0.424-0.095c0.146-0.026,0.292-0.044,0.442-0.056
			c0.148-0.008,0.288-0.015,0.418-0.015c0.631,0,1.096,0.14,1.398,0.42c0.302,0.278,0.455,0.688,0.455,1.229V49.422z M138.217,47.28
			h-1.258c-0.117,0-0.255,0.008-0.418,0.029c-0.164,0.019-0.316,0.066-0.462,0.139c-0.146,0.076-0.268,0.188-0.372,0.337
			c-0.099,0.146-0.148,0.343-0.148,0.599c0,0.197,0.037,0.362,0.113,0.489c0.073,0.128,0.176,0.233,0.302,0.311
			c0.126,0.081,0.268,0.137,0.432,0.165c0.162,0.029,0.331,0.045,0.508,0.045c0.056,0,0.136-0.004,0.236-0.012
			c0.102-0.008,0.211-0.019,0.337-0.03c0.123-0.015,0.246-0.031,0.373-0.063c0.129-0.032,0.246-0.064,0.359-0.105V47.28z"/>
		<path fill="#231F20" d="M144.409,50.671c0.143,0.153,0.213,0.319,0.213,0.494c0,0.087-0.02,0.184-0.057,0.27
			c-0.041,0.092-0.1,0.176-0.176,0.245c-0.08,0.073-0.179,0.132-0.301,0.184c-0.123,0.047-0.272,0.072-0.449,0.072
			c-0.17,0-0.329-0.018-0.479-0.052c-0.148-0.032-0.268-0.072-0.358-0.116c-0.066-0.025-0.086-0.072-0.06-0.136l0.07-0.175
			c0.02-0.049,0.039-0.069,0.063-0.069s0.05,0.007,0.083,0.019c0.096,0.04,0.2,0.068,0.306,0.091
			c0.105,0.02,0.205,0.026,0.298,0.026c0.186,0,0.322-0.033,0.409-0.101c0.083-0.067,0.125-0.159,0.125-0.27
			c0-0.128-0.06-0.226-0.179-0.292c-0.123-0.064-0.266-0.095-0.435-0.095c-0.046,0-0.089,0-0.132,0c-0.04,0-0.07-0.007-0.08-0.021
			c-0.053-0.012-0.08-0.037-0.08-0.082c0-0.042,0.007-0.086,0.021-0.134l0.195-0.563c-0.254-0.022-0.51-0.06-0.77-0.118
			c-0.258-0.057-0.495-0.142-0.701-0.252c-0.032-0.015-0.056-0.032-0.072-0.062c-0.017-0.03-0.013-0.066,0.013-0.113l0.156-0.333
			c0.033-0.076,0.093-0.098,0.186-0.065c0.259,0.121,0.528,0.213,0.804,0.266c0.274,0.056,0.527,0.082,0.753,0.082
			c0.332,0,0.602-0.066,0.811-0.202c0.205-0.134,0.309-0.343,0.309-0.613c0-0.26-0.11-0.468-0.329-0.614
			c-0.223-0.149-0.534-0.299-0.936-0.449c-0.279-0.095-0.514-0.193-0.711-0.292c-0.195-0.095-0.355-0.201-0.477-0.313
			c-0.124-0.113-0.213-0.242-0.266-0.378c-0.057-0.135-0.083-0.3-0.083-0.484c0-0.398,0.147-0.724,0.442-0.987
			c0.296-0.256,0.72-0.388,1.272-0.388c0.265,0,0.521,0.021,0.77,0.063c0.246,0.042,0.491,0.116,0.737,0.219
			c0.074,0.032,0.096,0.087,0.07,0.168l-0.156,0.376c-0.019,0.034-0.039,0.051-0.059,0.055c-0.017,0.003-0.043,0-0.077-0.014
			c-0.246-0.096-0.472-0.166-0.671-0.206c-0.203-0.036-0.414-0.058-0.633-0.058c-0.299,0-0.539,0.069-0.717,0.205
			c-0.176,0.134-0.266,0.31-0.266,0.524c0,0.126,0.023,0.23,0.067,0.319c0.045,0.083,0.116,0.164,0.216,0.236
			c0.096,0.07,0.222,0.14,0.378,0.209c0.152,0.069,0.342,0.143,0.56,0.219c0.213,0.077,0.416,0.165,0.602,0.252
			c0.19,0.096,0.352,0.198,0.495,0.321c0.142,0.119,0.255,0.261,0.341,0.417c0.083,0.16,0.127,0.351,0.127,0.57
			c0,0.237-0.047,0.45-0.14,0.626c-0.09,0.178-0.216,0.332-0.372,0.456c-0.16,0.121-0.35,0.216-0.565,0.274
			c-0.219,0.062-0.455,0.095-0.707,0.095l-0.146,0.438C144.015,50.433,144.267,50.521,144.409,50.671z"/>
		<path fill="#231F20" d="M148.205,45.329c-0.05,0-0.083-0.007-0.096-0.032c-0.013-0.022-0.02-0.048-0.02-0.08v-0.235
			c0-0.047,0.006-0.08,0.02-0.097c0.013-0.019,0.046-0.034,0.096-0.049l0.771-0.127l0.135-0.947
			c0.004-0.055,0.017-0.096,0.037-0.113c0.02-0.022,0.053-0.04,0.106-0.063l0.26-0.094c0.089-0.022,0.132,0.014,0.132,0.104v1.158
			h1.143c0.049,0,0.083,0.015,0.096,0.037s0.02,0.055,0.02,0.093v0.332c0,0.036-0.007,0.069-0.02,0.084
			c-0.013,0.021-0.047,0.028-0.096,0.028h-1.143v3.285c0,0.238,0.05,0.421,0.146,0.538c0.1,0.122,0.286,0.182,0.568,0.182
			c0.076,0,0.189-0.008,0.339-0.018c0.148-0.016,0.285-0.034,0.409-0.063c0.052-0.004,0.086,0,0.099,0.007
			c0.013,0.008,0.02,0.029,0.027,0.066l0.08,0.366c0.007,0.032,0.007,0.063,0.004,0.084c-0.004,0.022-0.027,0.044-0.073,0.063
			c-0.18,0.054-0.369,0.087-0.564,0.105c-0.193,0.016-0.335,0.022-0.429,0.022c-0.245,0-0.451-0.026-0.621-0.077
			c-0.166-0.055-0.303-0.132-0.405-0.237c-0.103-0.106-0.176-0.245-0.219-0.406c-0.047-0.165-0.07-0.354-0.07-0.575v-3.342H148.205z
			"/>
		<path fill="#231F20" d="M157.883,49.422c0,0.117-0.042,0.197-0.136,0.23c-0.292,0.128-0.604,0.211-0.933,0.255
			c-0.333,0.045-0.651,0.07-0.957,0.07c-0.415,0-0.754-0.048-1.022-0.139c-0.266-0.089-0.475-0.208-0.631-0.354
			c-0.156-0.147-0.266-0.318-0.325-0.508c-0.063-0.194-0.093-0.391-0.093-0.6c0-0.246,0.04-0.468,0.126-0.685
			c0.083-0.208,0.212-0.394,0.386-0.547c0.169-0.157,0.384-0.281,0.647-0.365c0.259-0.091,0.567-0.136,0.923-0.136h1.295v-0.26
			c0-0.157-0.017-0.306-0.046-0.442c-0.034-0.143-0.097-0.255-0.186-0.354c-0.09-0.096-0.22-0.168-0.378-0.227
			c-0.163-0.052-0.375-0.076-0.634-0.076c-0.216,0-0.449,0.019-0.707,0.062c-0.256,0.039-0.475,0.092-0.658,0.15
			c-0.043,0.012-0.08,0.019-0.106,0.015c-0.026-0.003-0.046-0.029-0.057-0.073l-0.1-0.354c-0.019-0.073,0.008-0.125,0.08-0.15
			c0.116-0.042,0.242-0.084,0.378-0.12c0.136-0.037,0.279-0.07,0.425-0.095c0.146-0.026,0.292-0.044,0.442-0.056
			c0.149-0.008,0.289-0.015,0.419-0.015c0.629,0,1.095,0.14,1.397,0.42c0.302,0.278,0.451,0.688,0.451,1.229V49.422z M157.153,47.28
			h-1.255c-0.116,0-0.256,0.008-0.418,0.029c-0.163,0.019-0.316,0.066-0.462,0.139c-0.146,0.076-0.272,0.188-0.372,0.337
			c-0.1,0.146-0.149,0.343-0.149,0.599c0,0.197,0.036,0.362,0.11,0.489c0.075,0.128,0.175,0.233,0.302,0.311
			c0.128,0.081,0.271,0.137,0.435,0.165c0.163,0.029,0.332,0.045,0.504,0.045c0.061,0,0.141-0.004,0.24-0.012
			s0.212-0.019,0.335-0.03c0.126-0.015,0.25-0.031,0.376-0.063c0.126-0.032,0.246-0.064,0.355-0.105V47.28z"/>
		<path fill="#231F20" d="M165.198,49.845c-0.02,0.016-0.056,0.026-0.106,0.026h-0.441c-0.046,0-0.081-0.011-0.1-0.026
			c-0.022-0.013-0.036-0.05-0.036-0.102v-2.598c0-0.314-0.023-0.586-0.074-0.822c-0.046-0.233-0.132-0.424-0.256-0.578
			c-0.123-0.153-0.294-0.27-0.51-0.347c-0.219-0.076-0.491-0.112-0.824-0.112c-0.08,0-0.215,0.003-0.408,0.011
			c-0.195,0.011-0.405,0.035-0.634,0.083v4.363c0,0.052-0.01,0.089-0.03,0.102c-0.02,0.016-0.053,0.026-0.106,0.026h-0.438
			c-0.046,0-0.079-0.011-0.104-0.026c-0.022-0.013-0.033-0.05-0.033-0.102v-4.353c0-0.372,0.177-0.583,0.525-0.646
			c0.077-0.011,0.173-0.021,0.286-0.035c0.116-0.012,0.232-0.026,0.353-0.038c0.12-0.007,0.235-0.015,0.348-0.015
			c0.113-0.007,0.209-0.007,0.285-0.007c0.416,0,0.771,0.048,1.066,0.135c0.292,0.092,0.534,0.234,0.725,0.433
			c0.186,0.192,0.325,0.444,0.411,0.759c0.086,0.312,0.129,0.688,0.129,1.13v2.638C165.225,49.795,165.219,49.832,165.198,49.845z"
			/>
		<path fill="#231F20" d="M174.887,50.726c-0.149,0.443-0.335,0.745-0.551,0.921c-0.219,0.172-0.498,0.26-0.843,0.26
			c-0.089,0-0.203-0.008-0.335-0.018c-0.134-0.012-0.283-0.041-0.443-0.088c-0.093-0.028-0.13-0.077-0.109-0.147l0.1-0.364
			c0.014-0.044,0.03-0.07,0.053-0.074c0.023-0.005,0.054-0.003,0.093,0.008c0.136,0.029,0.24,0.056,0.307,0.066
			c0.069,0.004,0.142,0.011,0.219,0.011c0.102,0,0.199-0.011,0.282-0.021c0.083-0.019,0.159-0.053,0.229-0.098
			c0.07-0.049,0.133-0.119,0.19-0.206c0.059-0.088,0.108-0.2,0.155-0.344l0.292-0.799h-0.166c-0.069,0-0.137-0.016-0.192-0.04
			c-0.061-0.027-0.114-0.107-0.157-0.246l-1.561-4.691c-0.017-0.065,0.003-0.1,0.071-0.1h0.534c0.046,0,0.077,0.007,0.09,0.022
			c0.014,0.012,0.023,0.037,0.036,0.069c0.046,0.143,0.113,0.344,0.199,0.611c0.089,0.265,0.183,0.544,0.279,0.832
			c0.096,0.289,0.189,0.567,0.272,0.833c0.085,0.268,0.153,0.473,0.206,0.614c0.02,0.051,0.049,0.153,0.093,0.308
			c0.039,0.153,0.086,0.313,0.139,0.489c0.053,0.175,0.1,0.343,0.146,0.501c0.047,0.153,0.08,0.254,0.1,0.31h0.046
			c0.041-0.12,0.087-0.267,0.144-0.438c0.053-0.176,0.109-0.352,0.163-0.523c0.056-0.171,0.106-0.328,0.149-0.464
			c0.04-0.135,0.067-0.22,0.079-0.252c0.021-0.048,0.061-0.161,0.124-0.344c0.063-0.187,0.14-0.413,0.229-0.68
			c0.089-0.264,0.192-0.555,0.302-0.866c0.109-0.31,0.218-0.618,0.331-0.924c0.014-0.033,0.024-0.056,0.038-0.073
			c0.013-0.015,0.042-0.026,0.089-0.026h0.505c0.074,0,0.101,0.034,0.08,0.1L174.887,50.726z"/>
		<path fill="#231F20" d="M183.474,49.422c0,0.117-0.046,0.197-0.136,0.23c-0.293,0.128-0.604,0.211-0.937,0.255
			c-0.329,0.045-0.647,0.07-0.953,0.07c-0.415,0-0.757-0.048-1.023-0.139c-0.265-0.089-0.477-0.208-0.63-0.354
			c-0.156-0.147-0.266-0.318-0.329-0.508c-0.06-0.194-0.093-0.391-0.093-0.6c0-0.246,0.043-0.468,0.13-0.685
			c0.083-0.208,0.211-0.394,0.382-0.547c0.173-0.157,0.388-0.281,0.647-0.365c0.262-0.091,0.568-0.136,0.926-0.136h1.294v-0.26
			c0-0.157-0.017-0.306-0.05-0.442c-0.03-0.143-0.093-0.255-0.182-0.354c-0.094-0.096-0.22-0.168-0.382-0.227
			c-0.163-0.052-0.372-0.076-0.631-0.076c-0.215,0-0.451,0.019-0.707,0.062c-0.255,0.039-0.476,0.092-0.658,0.15
			c-0.046,0.012-0.079,0.019-0.106,0.015c-0.026-0.003-0.046-0.029-0.06-0.073l-0.097-0.354c-0.02-0.073,0.008-0.125,0.076-0.15
			c0.121-0.042,0.246-0.084,0.382-0.12c0.136-0.037,0.276-0.07,0.421-0.095c0.146-0.026,0.296-0.044,0.445-0.056
			c0.149-0.008,0.289-0.015,0.419-0.015c0.626,0,1.095,0.14,1.397,0.42c0.302,0.278,0.451,0.688,0.451,1.229V49.422z M182.742,47.28
			h-1.253c-0.117,0-0.256,0.008-0.418,0.029c-0.164,0.019-0.318,0.066-0.465,0.139c-0.146,0.076-0.27,0.188-0.369,0.337
			c-0.101,0.146-0.153,0.343-0.153,0.599c0,0.197,0.041,0.362,0.114,0.489c0.075,0.128,0.175,0.233,0.301,0.311
			c0.125,0.081,0.272,0.137,0.435,0.165c0.16,0.029,0.329,0.045,0.506,0.045c0.059,0,0.139-0.004,0.239-0.012
			s0.212-0.019,0.335-0.03c0.123-0.015,0.249-0.031,0.375-0.063c0.126-0.032,0.246-0.064,0.354-0.105V47.28z"/>
		<path fill="#231F20" d="M189.918,44.755c0.243,0,0.363,0.114,0.363,0.334v0.116c0,0.059-0.011,0.119-0.031,0.186
			c-0.02,0.067-0.052,0.126-0.105,0.187l-3.119,3.688l0.01,0.021h3.117c0.057,0,0.097,0.008,0.11,0.034
			c0.018,0.021,0.026,0.047,0.026,0.08v0.343c0,0.084-0.045,0.128-0.136,0.128h-3.601c-0.124,0-0.21-0.03-0.26-0.084
			c-0.049-0.058-0.073-0.129-0.073-0.208v-0.117c0-0.072,0.01-0.142,0.03-0.216c0.02-0.069,0.06-0.143,0.126-0.211l3.087-3.665
			v-0.031h-2.854c-0.05,0-0.087-0.007-0.102-0.02c-0.015-0.019-0.024-0.048-0.024-0.097v-0.338c0-0.038,0.01-0.07,0.024-0.093
			c0.015-0.022,0.052-0.037,0.102-0.037H189.918z"/>
		<path fill="#231F20" d="M193.581,45.069c-0.013,0.052-0.03,0.091-0.05,0.113c-0.02,0.029-0.057,0.04-0.116,0.04h-0.242
			c-0.097,0-0.146-0.036-0.146-0.104V45.1c0.026-0.333,0.049-0.666,0.073-1.001c0.022-0.334,0.049-0.666,0.082-0.994
			c0.007-0.048,0.021-0.089,0.037-0.118c0.02-0.031,0.06-0.051,0.119-0.051h0.672c0.053,0,0.09,0.012,0.116,0.034
			c0.026,0.024,0.039,0.05,0.039,0.084v0.039L193.581,45.069z M195.072,45.069c-0.014,0.052-0.034,0.091-0.053,0.113
			c-0.024,0.029-0.067,0.04-0.124,0.04h-0.235c-0.103,0-0.153-0.043-0.153-0.123l0.153-1.995c0.006-0.048,0.022-0.089,0.046-0.118
			c0.02-0.031,0.063-0.051,0.12-0.051h0.664c0.063,0,0.105,0.016,0.126,0.044s0.03,0.059,0.03,0.092v0.021L195.072,45.069z"/>
	</g>
</g>
</svg>
